<mxfile host="app.diagrams.net" modified="2022-02-08T03:54:31.774Z" agent="5.0 (Windows NT 10.0; Win64; x64) AppleWebKit/537.36 (KHTML, like Gecko) Chrome/97.0.4692.99 Safari/537.36" etag="hhoZHCEKZMzmxFIE6Qg_" version="16.2.6" type="github">
  <diagram id="LFRazOVNXNX8WZkX8r5J" name="Page-1">
    <mxGraphModel dx="1303" dy="1892" grid="1" gridSize="10" guides="1" tooltips="1" connect="1" arrows="1" fold="1" page="1" pageScale="1" pageWidth="827" pageHeight="1169" math="0" shadow="0">
      <root>
        <mxCell id="0" />
        <mxCell id="1" parent="0" />
        <mxCell id="vFVfMu89tTtalHip93RH-3" value="" style="edgeStyle=orthogonalEdgeStyle;rounded=0;orthogonalLoop=1;jettySize=auto;html=1;entryX=0.5;entryY=0;entryDx=0;entryDy=0;" edge="1" parent="1" source="vFVfMu89tTtalHip93RH-1" target="vFVfMu89tTtalHip93RH-4">
          <mxGeometry relative="1" as="geometry">
            <mxPoint x="220" y="180" as="targetPoint" />
          </mxGeometry>
        </mxCell>
        <mxCell id="vFVfMu89tTtalHip93RH-1" value="启动调度器" style="rounded=0;whiteSpace=wrap;html=1;" vertex="1" parent="1">
          <mxGeometry x="175" y="-50" width="90" height="40" as="geometry" />
        </mxCell>
        <mxCell id="vFVfMu89tTtalHip93RH-6" value="" style="edgeStyle=orthogonalEdgeStyle;rounded=0;orthogonalLoop=1;jettySize=auto;html=1;" edge="1" parent="1" source="vFVfMu89tTtalHip93RH-4" target="vFVfMu89tTtalHip93RH-5">
          <mxGeometry relative="1" as="geometry" />
        </mxCell>
        <mxCell id="vFVfMu89tTtalHip93RH-60" value="" style="edgeStyle=orthogonalEdgeStyle;rounded=0;orthogonalLoop=1;jettySize=auto;html=1;" edge="1" parent="1" source="vFVfMu89tTtalHip93RH-4" target="vFVfMu89tTtalHip93RH-59">
          <mxGeometry relative="1" as="geometry" />
        </mxCell>
        <mxCell id="vFVfMu89tTtalHip93RH-4" value="创建Goroutine" style="rounded=1;whiteSpace=wrap;html=1;" vertex="1" parent="1">
          <mxGeometry x="160" y="70" width="120" height="60" as="geometry" />
        </mxCell>
        <mxCell id="vFVfMu89tTtalHip93RH-15" value="" style="edgeStyle=orthogonalEdgeStyle;rounded=0;orthogonalLoop=1;jettySize=auto;html=1;" edge="1" parent="1" source="vFVfMu89tTtalHip93RH-5" target="vFVfMu89tTtalHip93RH-14">
          <mxGeometry relative="1" as="geometry" />
        </mxCell>
        <mxCell id="vFVfMu89tTtalHip93RH-50" value="" style="edgeStyle=orthogonalEdgeStyle;rounded=0;orthogonalLoop=1;jettySize=auto;html=1;" edge="1" parent="1" source="vFVfMu89tTtalHip93RH-5" target="vFVfMu89tTtalHip93RH-49">
          <mxGeometry relative="1" as="geometry" />
        </mxCell>
        <mxCell id="vFVfMu89tTtalHip93RH-5" value="获取或创建&lt;br&gt;新Goroutine结构体G" style="ellipse;whiteSpace=wrap;html=1;rounded=1;" vertex="1" parent="1">
          <mxGeometry x="691" y="70" width="120" height="60" as="geometry" />
        </mxCell>
        <mxCell id="vFVfMu89tTtalHip93RH-18" value="否" style="edgeStyle=orthogonalEdgeStyle;rounded=0;orthogonalLoop=1;jettySize=auto;html=1;entryX=0.5;entryY=0;entryDx=0;entryDy=0;" edge="1" parent="1" source="vFVfMu89tTtalHip93RH-14" target="vFVfMu89tTtalHip93RH-16">
          <mxGeometry x="-0.1429" relative="1" as="geometry">
            <mxPoint x="1180" y="145" as="targetPoint" />
            <mxPoint as="offset" />
          </mxGeometry>
        </mxCell>
        <mxCell id="vFVfMu89tTtalHip93RH-20" value="是" style="edgeStyle=orthogonalEdgeStyle;rounded=0;orthogonalLoop=1;jettySize=auto;html=1;entryX=0;entryY=0.5;entryDx=0;entryDy=0;" edge="1" parent="1" source="vFVfMu89tTtalHip93RH-14" target="vFVfMu89tTtalHip93RH-30">
          <mxGeometry x="-0.1111" relative="1" as="geometry">
            <mxPoint x="1330" y="99.00000000000011" as="targetPoint" />
            <mxPoint as="offset" />
          </mxGeometry>
        </mxCell>
        <mxCell id="vFVfMu89tTtalHip93RH-14" value="P处理器&lt;br&gt;的gFree是否为空" style="rhombus;whiteSpace=wrap;html=1;rounded=1;" vertex="1" parent="1">
          <mxGeometry x="1120" y="54" width="120" height="90" as="geometry" />
        </mxCell>
        <mxCell id="vFVfMu89tTtalHip93RH-41" value="" style="edgeStyle=orthogonalEdgeStyle;rounded=0;orthogonalLoop=1;jettySize=auto;html=1;entryX=0.5;entryY=0;entryDx=0;entryDy=0;" edge="1" parent="1" source="vFVfMu89tTtalHip93RH-16" target="vFVfMu89tTtalHip93RH-55">
          <mxGeometry relative="1" as="geometry">
            <mxPoint x="1395" y="525" as="targetPoint" />
            <Array as="points">
              <mxPoint x="1180" y="465" />
              <mxPoint x="1395" y="465" />
            </Array>
          </mxGeometry>
        </mxCell>
        <mxCell id="vFVfMu89tTtalHip93RH-16" value="直接从处理器的gFree获取G" style="whiteSpace=wrap;html=1;rounded=1;" vertex="1" parent="1">
          <mxGeometry x="1125" y="345" width="110" height="60" as="geometry" />
        </mxCell>
        <mxCell id="vFVfMu89tTtalHip93RH-33" value="否" style="edgeStyle=orthogonalEdgeStyle;rounded=0;orthogonalLoop=1;jettySize=auto;html=1;exitX=0.513;exitY=0.963;exitDx=0;exitDy=0;exitPerimeter=0;entryX=0.5;entryY=0;entryDx=0;entryDy=0;" edge="1" parent="1" target="vFVfMu89tTtalHip93RH-32">
          <mxGeometry relative="1" as="geometry">
            <mxPoint x="1396.82" y="145.30000000000007" as="sourcePoint" />
            <mxPoint x="1395" y="294" as="targetPoint" />
            <Array as="points">
              <mxPoint x="1395" y="145" />
            </Array>
          </mxGeometry>
        </mxCell>
        <mxCell id="vFVfMu89tTtalHip93RH-43" value="是" style="edgeStyle=orthogonalEdgeStyle;rounded=0;orthogonalLoop=1;jettySize=auto;html=1;" edge="1" parent="1" source="vFVfMu89tTtalHip93RH-30" target="vFVfMu89tTtalHip93RH-42">
          <mxGeometry x="-0.5085" relative="1" as="geometry">
            <mxPoint as="offset" />
          </mxGeometry>
        </mxCell>
        <mxCell id="vFVfMu89tTtalHip93RH-30" value="调度器gFree列表&lt;br&gt;是否为空" style="rhombus;whiteSpace=wrap;html=1;rounded=1;" vertex="1" parent="1">
          <mxGeometry x="1325" y="49" width="140" height="100" as="geometry" />
        </mxCell>
        <mxCell id="vFVfMu89tTtalHip93RH-40" value="" style="edgeStyle=orthogonalEdgeStyle;rounded=0;orthogonalLoop=1;jettySize=auto;html=1;" edge="1" parent="1" source="vFVfMu89tTtalHip93RH-32" target="vFVfMu89tTtalHip93RH-39">
          <mxGeometry relative="1" as="geometry" />
        </mxCell>
        <mxCell id="vFVfMu89tTtalHip93RH-32" value="将调度器持有的空闲Goroutine转移至当前处理器的gFree列表" style="whiteSpace=wrap;html=1;rounded=1;" vertex="1" parent="1">
          <mxGeometry x="1335" y="236" width="120" height="60" as="geometry" />
        </mxCell>
        <mxCell id="vFVfMu89tTtalHip93RH-38" value="" style="edgeStyle=orthogonalEdgeStyle;rounded=0;orthogonalLoop=1;jettySize=auto;html=1;exitX=0.5;exitY=1;exitDx=0;exitDy=0;" edge="1" parent="1" source="vFVfMu89tTtalHip93RH-39">
          <mxGeometry relative="1" as="geometry">
            <mxPoint x="1395" y="545" as="targetPoint" />
          </mxGeometry>
        </mxCell>
        <mxCell id="vFVfMu89tTtalHip93RH-39" value="直接从处理器gFree列表头部pop一个新G" style="whiteSpace=wrap;html=1;rounded=1;" vertex="1" parent="1">
          <mxGeometry x="1335" y="345" width="120" height="60" as="geometry" />
        </mxCell>
        <mxCell id="vFVfMu89tTtalHip93RH-45" value="" style="edgeStyle=orthogonalEdgeStyle;rounded=0;orthogonalLoop=1;jettySize=auto;html=1;entryX=0.5;entryY=0;entryDx=0;entryDy=0;entryPerimeter=0;" edge="1" parent="1" source="vFVfMu89tTtalHip93RH-42" target="vFVfMu89tTtalHip93RH-55">
          <mxGeometry relative="1" as="geometry">
            <mxPoint x="1395" y="525" as="targetPoint" />
            <Array as="points">
              <mxPoint x="1545" y="465" />
              <mxPoint x="1395" y="465" />
            </Array>
          </mxGeometry>
        </mxCell>
        <mxCell id="vFVfMu89tTtalHip93RH-42" value="创建新结构体G并append至全局Goroutine列表" style="whiteSpace=wrap;html=1;rounded=1;" vertex="1" parent="1">
          <mxGeometry x="1480" y="345" width="130" height="60" as="geometry" />
        </mxCell>
        <mxCell id="vFVfMu89tTtalHip93RH-83" style="edgeStyle=orthogonalEdgeStyle;rounded=0;orthogonalLoop=1;jettySize=auto;html=1;exitX=1;exitY=0.5;exitDx=0;exitDy=0;entryX=0;entryY=0.5;entryDx=0;entryDy=0;" edge="1" parent="1" source="vFVfMu89tTtalHip93RH-49" target="vFVfMu89tTtalHip93RH-63">
          <mxGeometry relative="1" as="geometry" />
        </mxCell>
        <mxCell id="vFVfMu89tTtalHip93RH-49" value="将Goroutine放至运行队列" style="ellipse;whiteSpace=wrap;html=1;rounded=1;" vertex="1" parent="1">
          <mxGeometry x="690" y="240" width="120" height="60" as="geometry" />
        </mxCell>
        <mxCell id="vFVfMu89tTtalHip93RH-58" value="" style="edgeStyle=orthogonalEdgeStyle;rounded=0;orthogonalLoop=1;jettySize=auto;html=1;" edge="1" parent="1" source="vFVfMu89tTtalHip93RH-55" target="vFVfMu89tTtalHip93RH-57">
          <mxGeometry relative="1" as="geometry" />
        </mxCell>
        <mxCell id="vFVfMu89tTtalHip93RH-55" value="函数参数拷贝至G的栈上" style="whiteSpace=wrap;html=1;rounded=1;" vertex="1" parent="1">
          <mxGeometry x="1335" y="525" width="120" height="60" as="geometry" />
        </mxCell>
        <mxCell id="vFVfMu89tTtalHip93RH-57" value="设置G的调度属性" style="whiteSpace=wrap;html=1;rounded=1;" vertex="1" parent="1">
          <mxGeometry x="1335" y="635" width="120" height="60" as="geometry" />
        </mxCell>
        <mxCell id="vFVfMu89tTtalHip93RH-62" value="" style="edgeStyle=orthogonalEdgeStyle;rounded=0;orthogonalLoop=1;jettySize=auto;html=1;" edge="1" parent="1" source="vFVfMu89tTtalHip93RH-59" target="vFVfMu89tTtalHip93RH-61">
          <mxGeometry relative="1" as="geometry" />
        </mxCell>
        <mxCell id="vFVfMu89tTtalHip93RH-73" value="" style="edgeStyle=orthogonalEdgeStyle;rounded=0;orthogonalLoop=1;jettySize=auto;html=1;" edge="1" parent="1" source="vFVfMu89tTtalHip93RH-59" target="vFVfMu89tTtalHip93RH-72">
          <mxGeometry relative="1" as="geometry" />
        </mxCell>
        <mxCell id="vFVfMu89tTtalHip93RH-59" value="调度循环&lt;br&gt;（M此时开始寻找可执行的Goroutine）" style="rounded=1;whiteSpace=wrap;html=1;" vertex="1" parent="1">
          <mxGeometry x="135" y="260" width="170" height="60" as="geometry" />
        </mxCell>
        <mxCell id="vFVfMu89tTtalHip93RH-61" value="触发调度" style="rounded=1;whiteSpace=wrap;html=1;" vertex="1" parent="1">
          <mxGeometry x="160" y="454" width="120" height="60" as="geometry" />
        </mxCell>
        <mxCell id="vFVfMu89tTtalHip93RH-66" value="否" style="edgeStyle=orthogonalEdgeStyle;rounded=0;orthogonalLoop=1;jettySize=auto;html=1;exitX=0.5;exitY=1;exitDx=0;exitDy=0;" edge="1" parent="1" source="vFVfMu89tTtalHip93RH-63" target="vFVfMu89tTtalHip93RH-65">
          <mxGeometry relative="1" as="geometry" />
        </mxCell>
        <mxCell id="vFVfMu89tTtalHip93RH-68" value="是" style="edgeStyle=orthogonalEdgeStyle;rounded=0;orthogonalLoop=1;jettySize=auto;html=1;" edge="1" parent="1" source="vFVfMu89tTtalHip93RH-63" target="vFVfMu89tTtalHip93RH-67">
          <mxGeometry x="0.3333" relative="1" as="geometry">
            <mxPoint as="offset" />
          </mxGeometry>
        </mxCell>
        <mxCell id="vFVfMu89tTtalHip93RH-63" value="判断本地运行队列&lt;br&gt;是否已满" style="rhombus;whiteSpace=wrap;html=1;rounded=1;" vertex="1" parent="1">
          <mxGeometry x="890" y="230" width="140" height="80" as="geometry" />
        </mxCell>
        <mxCell id="vFVfMu89tTtalHip93RH-65" value="将G加入处理器持有的本地运行队列" style="whiteSpace=wrap;html=1;rounded=1;" vertex="1" parent="1">
          <mxGeometry x="900" y="500" width="120" height="60" as="geometry" />
        </mxCell>
        <mxCell id="vFVfMu89tTtalHip93RH-67" value="将G加入调度器持有的全局运行队列" style="whiteSpace=wrap;html=1;rounded=1;" vertex="1" parent="1">
          <mxGeometry x="1040" y="500" width="120" height="60" as="geometry" />
        </mxCell>
        <mxCell id="vFVfMu89tTtalHip93RH-75" value="" style="edgeStyle=orthogonalEdgeStyle;rounded=0;orthogonalLoop=1;jettySize=auto;html=1;" edge="1" parent="1" source="vFVfMu89tTtalHip93RH-72" target="vFVfMu89tTtalHip93RH-74">
          <mxGeometry relative="1" as="geometry" />
        </mxCell>
        <mxCell id="vFVfMu89tTtalHip93RH-72" value="从本地运行队列查找待执行的Goroutine" style="ellipse;whiteSpace=wrap;html=1;rounded=1;" vertex="1" parent="1">
          <mxGeometry x="410" y="260" width="120" height="60" as="geometry" />
        </mxCell>
        <mxCell id="vFVfMu89tTtalHip93RH-77" value="" style="edgeStyle=orthogonalEdgeStyle;rounded=0;orthogonalLoop=1;jettySize=auto;html=1;" edge="1" parent="1" source="vFVfMu89tTtalHip93RH-74" target="vFVfMu89tTtalHip93RH-76">
          <mxGeometry relative="1" as="geometry" />
        </mxCell>
        <mxCell id="vFVfMu89tTtalHip93RH-74" value="从全局运行队列查找待执行的Goroutine" style="ellipse;whiteSpace=wrap;html=1;rounded=1;" vertex="1" parent="1">
          <mxGeometry x="410" y="454" width="120" height="60" as="geometry" />
        </mxCell>
        <mxCell id="vFVfMu89tTtalHip93RH-79" value="" style="edgeStyle=orthogonalEdgeStyle;rounded=0;orthogonalLoop=1;jettySize=auto;html=1;" edge="1" parent="1" source="vFVfMu89tTtalHip93RH-76" target="vFVfMu89tTtalHip93RH-78">
          <mxGeometry relative="1" as="geometry" />
        </mxCell>
        <mxCell id="vFVfMu89tTtalHip93RH-82" value="" style="edgeStyle=orthogonalEdgeStyle;rounded=0;orthogonalLoop=1;jettySize=auto;html=1;" edge="1" parent="1" source="vFVfMu89tTtalHip93RH-76" target="vFVfMu89tTtalHip93RH-81">
          <mxGeometry relative="1" as="geometry" />
        </mxCell>
        <mxCell id="vFVfMu89tTtalHip93RH-76" value="阻塞地查找Goroutine，最终返回Runnable的Goroutine" style="ellipse;whiteSpace=wrap;html=1;rounded=1;fontStyle=1" vertex="1" parent="1">
          <mxGeometry x="390" y="695" width="160" height="90" as="geometry" />
        </mxCell>
        <mxCell id="vFVfMu89tTtalHip93RH-78" value="尝试从其他处理器中窃取待运行的Goroutine" style="ellipse;whiteSpace=wrap;html=1;rounded=1;" vertex="1" parent="1">
          <mxGeometry x="650" y="710" width="120" height="60" as="geometry" />
        </mxCell>
        <mxCell id="vFVfMu89tTtalHip93RH-81" value="&lt;span style=&quot;font-weight: normal&quot;&gt;执行Goroutine&lt;/span&gt;" style="ellipse;whiteSpace=wrap;html=1;rounded=1;fontStyle=1;" vertex="1" parent="1">
          <mxGeometry x="410" y="880" width="120" height="60" as="geometry" />
        </mxCell>
      </root>
    </mxGraphModel>
  </diagram>
</mxfile>
